<?xml version="1.0" standalone="no"?><!DOCTYPE svg PUBLIC "-//W3C//DTD SVG 1.1//EN" "http://www.w3.org/Graphics/SVG/1.1/DTD/svg11.dtd"><svg t="1585735074999" class="icon" viewBox="0 0 1024 1024" version="1.1" xmlns="http://www.w3.org/2000/svg" p-id="10452" xmlns:xlink="http://www.w3.org/1999/xlink" width="32" height="32"><defs><style type="text/css"></style></defs><path d="M928 832H96c-17.6 0-32-14.4-32-32s14.4-32 32-32h832c17.6 0 32 14.4 32 32s-14.4 32-32 32z" p-id="10453"></path><path d="M832 832H192c-17.6 0-32-14.4-32-32V480c0-193.6 158.4-352 352-352s352 158.4 352 352v320c0 17.6-14.4 32-32 32z m-608-64h576V480c0-158.4-129.6-288-288-288s-288 129.6-288 288v288z" p-id="10454"></path><path d="M512 960c-88 0-160-72-160-160 0-17.6 14.4-32 32-32s32 14.4 32 32c0 52.8 43.2 96 96 96s96-43.2 96-96c0-17.6 14.4-32 32-32s32 14.4 32 32c0 88-72 160-160 160zM512 160c-17.6 0-32-14.4-32-32V64c0-17.6 14.4-32 32-32s32 14.4 32 32v64c0 17.6-14.4 32-32 32z" p-id="10455"></path></svg>