<?xml version="1.0" standalone="no"?><!DOCTYPE svg PUBLIC "-//W3C//DTD SVG 1.1//EN" "http://www.w3.org/Graphics/SVG/1.1/DTD/svg11.dtd"><svg t="1577169194088" class="icon" viewBox="0 0 1024 1024" version="1.1" xmlns="http://www.w3.org/2000/svg" p-id="13389" xmlns:xlink="http://www.w3.org/1999/xlink" width="200" height="200"><defs><style type="text/css"></style></defs><path d="M424.309392 763.756906c0-141.436464 96.176796-260.243094 226.298343-299.845304 5.657459-11.314917 5.657459-22.629834 11.314917-33.944751 5.657459 0 11.314917-5.657459 16.972376-11.314917 5.657459-5.657459 11.314917-11.314917 16.972375-22.629835 5.657459-5.657459 5.657459-22.629834 11.314917-33.944751v-28.287293c0-5.657459-5.657459-11.314917-5.657458-16.972375s-5.657459-11.314917-11.314917-11.314918c0-28.287293 0-56.574586-5.657459-84.861878-5.657459-22.629834-11.314917-50.917127-16.972376-73.546961-5.657459-28.287293-22.629834-50.917127-39.602209-73.546962-5.657459-5.657459-16.972376-16.972376-28.287293-22.629834-11.314917-11.314917-28.287293-16.972376-45.259669-28.287293-16.972376-5.657459-33.944751-11.314917-56.574585-16.972375-16.972376-5.657459-39.60221-5.657459-56.574586-5.657459s-33.944751 0-50.917127 5.657459c-16.972376 0-33.944751 5.657459-50.917127 11.314917-11.314917 5.657459-28.287293 16.972376-45.259669 28.287293-16.972376 11.314917-28.287293 28.287293-45.259668 45.259668-11.314917 22.629834-22.629834 39.60221-28.287293 67.889503-11.314917 22.629834-11.314917 45.259669-16.972376 67.889503 0 28.287293-5.657459 50.917127-5.657458 79.204419-5.657459 5.657459-5.657459 11.314917-11.314917 22.629835 0 5.657459-5.657459 16.972376-5.657459 22.629834 0 11.314917 0 22.629834 5.657459 33.944751 5.657459 11.314917 5.657459 22.629834 11.314917 28.287293s11.314917 11.314917 11.314917 16.972376c5.657459 5.657459 11.314917 5.657459 16.972376 5.657458 0 5.657459 5.657459 16.972376 11.314917 28.287293s5.657459 16.972376 11.314917 28.287293 11.314917 16.972376 16.972375 22.629834c11.314917 11.314917 22.629834 16.972376 33.944752 28.287293 11.314917 11.314917 16.972376 22.629834 16.972376 39.60221v28.287293c0 11.314917 0 16.972376-5.657459 22.629834-5.657459 5.657459-11.314917 16.972376-16.972376 22.629834-11.314917 5.657459-22.629834 11.314917-39.60221 22.629835-16.972376 11.314917-39.60221 22.629834-62.232044 28.287292s-45.259669 11.314917-67.889503 22.629835c-22.629834 5.657459-39.60221 16.972376-56.574585 33.944751-16.972376 11.314917-28.287293 33.944751-28.287293 56.574586-5.657459 45.259669-5.657459 79.20442-5.657459 107.491712 5.657459 28.287293 11.314917 45.259669 16.972376 50.917127 5.657459 5.657459 11.314917 5.657459 28.287293 11.314918s33.944751 5.657459 56.574586 11.314917 45.259669 5.657459 73.546961 11.314917 56.574586 5.657459 84.861878 5.657458 56.574586 5.657459 79.20442 5.657459h135.779006c11.314917 0 28.287293 0 45.259668-5.657459-79.20442-62.232044-130.121547-152.751381-130.121547-254.585635z" p-id="13390"></path><path d="M735.469613 509.171271c-141.436464 0-254.585635 113.149171-254.585635 254.585635s113.149171 254.585635 254.585635 254.585635 254.585635-113.149171 254.585636-254.585635S871.248619 509.171271 735.469613 509.171271z m141.436464 282.872928h-113.149171v113.149171h-56.574586v-113.149171h-113.149171v-56.574586h113.149171v-113.149171h56.574586v113.149171h113.149171v56.574586z" p-id="13391"></path></svg>