<?xml version="1.0" standalone="no"?><!DOCTYPE svg PUBLIC "-//W3C//DTD SVG 1.1//EN" "http://www.w3.org/Graphics/SVG/1.1/DTD/svg11.dtd"><svg t="1577169209609" class="icon" viewBox="0 0 1024 1024" version="1.1" xmlns="http://www.w3.org/2000/svg" p-id="13619" xmlns:xlink="http://www.w3.org/1999/xlink" width="200" height="200"><defs><style type="text/css"></style></defs><path d="M195.8912 386.5088c43.1104 0 78.08-34.9184 78.08-78.2336S239.0016 229.9904 195.8912 229.9904c-43.2128 0-78.4896 34.9696-78.4896 78.2848S152.6784 386.5088 195.8912 386.5088zM296.192 477.5936C269.8752 446.7712 235.008 427.8784 196.5568 427.8784c-81.2032 0-146.944 82.3296-146.944 183.9104l28.2624 31.2832-38.144 32.6144-8.0384 7.2192c0 11.264 73.4208 20.9408 164.1984 20.9408 0.6656 0 1.4336 0 2.1504 0C205.1584 612.608 241.8176 531.8144 296.192 477.5936zM511.8464 384.9728c78.4896 0 141.5168-63.1296 141.5168-141.1584C653.3632 165.7344 590.336 102.4 511.8464 102.4 433.7664 102.4 370.4832 165.7344 370.4832 243.8144 370.4832 321.8432 433.7664 384.9728 511.8464 384.9728zM796.16 872.6528l-70.7072-61.3888 51.3024-56.7296 1.28 0c0-10.7008-0.3584-21.5552-1.28-32.0512-7.1168-91.904-44.0832-172.544-98.5088-226.9696-45.4656-45.6704-102.912-72.4992-165.5808-72.4992-62.7712 0-120.3712 26.8288-165.9392 72.8576-54.016 54.4256-90.8288 134.8608-97.7408 226.56-1.0752 10.496-1.4336 21.3504-1.4336 32.0512l51.2 56.7296-69.2736 60.2112-14.1824 11.6736c0 20.992 132.3008 38.5024 296.1408 38.5024 163.9936 0 296.3968-17.5104 296.3968-38.5024l0.6144 0-0.7168-0.9728L796.16 872.6528zM828.0576 400.0768c43.3152 0 78.3872-35.1744 78.3872-78.336 0-43.3152-35.072-78.2848-78.3872-78.2848-43.1616 0-78.336 34.9696-78.336 78.2848C749.7216 364.9024 784.896 400.0768 828.0576 400.0768zM991.9488 675.2256l-6.4-5.2736-39.3728-33.9968 28.3648-31.0784 0.6656 0c0-101.632-65.6384-184.0128-146.688-184.0128-38.4512 0-73.216 18.6368-99.4816 49.5616 54.4256 54.2208 91.2384 134.656 98.5088 226.7648l0.2048 0c90.8288 0 164.1984-9.728 164.1984-21.5552l0.4096 0L991.9488 675.2256z" p-id="13620"></path></svg>