<?xml version="1.0" standalone="no"?><!DOCTYPE svg PUBLIC "-//W3C//DTD SVG 1.1//EN" "http://www.w3.org/Graphics/SVG/1.1/DTD/svg11.dtd"><svg t="1584517662339" class="icon" viewBox="0 0 1024 1024" version="1.1" xmlns="http://www.w3.org/2000/svg" p-id="31328" xmlns:xlink="http://www.w3.org/1999/xlink" width="32" height="32"><defs><style type="text/css"></style></defs><path d="M682.666667 134.4V204.8a351.573333 351.573333 0 0 1 213.333333 335.786667 380.586667 380.586667 0 0 1-384 377.173333 377.6 377.6 0 0 1-384-377.173333 387.84 387.84 0 0 1 213.333333-335.36V134.826667a417.706667 417.706667 0 0 0-277.333333 405.76A444.16 444.16 0 0 0 512 981.333333a443.733333 443.733333 0 0 0 448-440.746666A416.853333 416.853333 0 0 0 682.666667 134.4z m-130.56 280.746667a40.106667 40.106667 0 0 1-80.213334 0V81.92a40.106667 40.106667 0 0 1 80.213334 0z" p-id="31329"></path></svg>