<?xml version="1.0" standalone="no"?><!DOCTYPE svg PUBLIC "-//W3C//DTD SVG 1.1//EN" "http://www.w3.org/Graphics/SVG/1.1/DTD/svg11.dtd"><svg t="1575444916254" class="icon" viewBox="0 0 1024 1024" version="1.1" xmlns="http://www.w3.org/2000/svg" p-id="1873" xmlns:xlink="http://www.w3.org/1999/xlink" width="200" height="200"><defs><style type="text/css"></style></defs><path d="M933.647059 680.658824h-36.141177v-96.376471c0-48.188235-42.164706-90.352941-90.352941-90.352941h-265.035294v-90.352941h66.258824c36.141176 0 60.235294-24.094118 60.235294-60.235295v-192.752941c0-36.141176-24.094118-60.235294-60.235294-60.235294h-192.752942c-36.141176 0-60.235294 24.094118-60.235294 60.235294v192.752941c0 36.141176 24.094118 60.235294 60.235294 60.235295h66.258824v90.352941h-259.011765c-48.188235 0-90.352941 42.164706-90.352941 90.352941v96.376471h-36.141176c-36.141176 0-60.235294 30.117647-60.235295 60.235294v132.517647c0 36.141176 30.117647 60.235294 60.235295 60.235294h132.517647c36.141176 0 60.235294-30.117647 60.235294-60.235294v-132.517647c0-36.141176-30.117647-60.235294-60.235294-60.235294h-36.141177v-96.376471c0-18.070588 12.047059-30.117647 30.117647-30.117647h259.011765v126.494118h-36.141177c-36.141176 0-60.235294 24.094118-60.235294 60.235294v132.517647c0 36.141176 24.094118 60.235294 60.235294 60.235294h132.517648c36.141176 0 60.235294-24.094118 60.235294-60.235294v-132.517647c0-36.141176-24.094118-60.235294-60.235294-60.235294h-36.141177v-126.494118h265.035294c18.070588 0 30.117647 12.047059 30.117647 30.117647v96.376471h-36.141176c-36.141176 0-60.235294 30.117647-60.235294 60.235294v132.517647c0 36.141176 30.117647 60.235294 60.235294 60.235294h132.517647c36.141176 0 60.235294-30.117647 60.235294-60.235294v-132.517647c0-36.141176-30.117647-60.235294-60.235294-60.235294z m-518.02353-530.070589h192.752942v192.752941h-192.752942v-192.752941z m-186.729411 722.82353h-132.517647v-132.517647h132.517647v132.517647z m349.364706 0h-132.517648v-132.517647h132.517648v132.517647z m355.388235 0h-132.517647v-132.517647h132.517647v132.517647z" p-id="1874"></path></svg>